<svg width="505" height="352" viewBox="0 0 505 352" fill="none" xmlns="http://www.w3.org/2000/svg">
<g clip-path="url(#clip0_0_548)">
<g filter="url(#filter0_f_0_548)">
<rect x="27.1089" y="81.11" width="179.341" height="179.341" rx="53.0262" fill="url(#paint0_angular_0_548)"/>
</g>
<g filter="url(#filter1_d_0_548)">
<rect x="34.4382" y="88.4395" width="164.683" height="164.683" rx="44.8352" fill="#0D0D0D"/>
</g>
<mask id="mask0_0_548" style="mask-type:alpha" maskUnits="userSpaceOnUse" x="58" y="139" width="118" height="63">
<path fill-rule="evenodd" clip-rule="evenodd" d="M102.031 140.981C95.8561 138.055 84.4956 141.109 73.8347 143.975C68.2285 145.482 62.8159 146.938 58.4523 147.444C58.5983 149.304 58.6237 151.536 58.652 154.025C58.7951 166.604 59.0129 185.759 75.2361 196.794C93.3926 207.608 108.057 198.518 115.099 192.421C116.048 191.599 117.46 191.599 118.409 192.421C125.45 198.518 140.115 207.608 158.272 196.794C174.495 185.759 174.713 166.604 174.856 154.025C174.884 151.536 174.91 149.304 175.055 147.444C170.692 146.938 165.279 145.482 159.673 143.975C149.012 141.109 137.652 138.055 131.477 140.981C126.711 143.24 123.075 144.391 120.607 144.914C118.868 145.282 114.64 145.282 112.901 144.914C110.433 144.391 106.797 143.24 102.031 140.981ZM98.2026 165.266C91.7834 161.233 82.1059 164.291 77.8854 166.446C81.4394 176.81 98.7002 180.843 106.337 178.311C107.318 177.986 107.746 176.926 107.358 175.971C106.361 173.518 103.831 168.802 98.2026 165.266ZM154.442 166.446C150.222 164.291 140.544 161.233 134.125 165.266C128.496 168.802 125.967 173.518 124.97 175.971C124.581 176.926 125.01 177.986 125.991 178.311C133.628 180.843 150.888 176.81 154.442 166.446Z" fill="#3EC195"/>
</mask>
<g mask="url(#mask0_0_548)">
<path fill-rule="evenodd" clip-rule="evenodd" d="M102.031 140.981C95.8561 138.055 84.4956 141.109 73.8347 143.975C68.2285 145.482 62.8159 146.938 58.4523 147.444C58.5983 149.304 58.6237 151.536 58.652 154.025C58.7951 166.604 59.0129 185.759 75.2361 196.794C93.3926 207.608 108.057 198.518 115.099 192.421C116.048 191.599 117.46 191.599 118.409 192.421C125.45 198.518 140.115 207.608 158.272 196.794C174.495 185.759 174.713 166.604 174.856 154.025C174.884 151.536 174.91 149.304 175.055 147.444C170.692 146.938 165.279 145.482 159.673 143.975C149.012 141.109 137.652 138.055 131.477 140.981C126.711 143.24 123.075 144.391 120.607 144.914C118.868 145.282 114.64 145.282 112.901 144.914C110.433 144.391 106.797 143.24 102.031 140.981ZM98.2026 165.266C91.7834 161.233 82.1059 164.291 77.8854 166.446C81.4394 176.81 98.7002 180.843 106.337 178.311C107.318 177.986 107.746 176.926 107.358 175.971C106.361 173.518 103.831 168.802 98.2026 165.266ZM154.442 166.446C150.222 164.291 140.544 161.233 134.125 165.266C128.496 168.802 125.967 173.518 124.97 175.971C124.581 176.926 125.01 177.986 125.991 178.311C133.628 180.843 150.888 176.81 154.442 166.446Z" fill="#3EC195"/>
<path fill-rule="evenodd" clip-rule="evenodd" d="M102.031 140.98C95.8562 138.054 84.4957 141.108 73.8348 143.975C68.2287 145.482 62.816 146.937 58.4525 147.443C58.5984 149.303 58.6238 151.535 58.6521 154.025C58.7952 166.604 59.0131 185.759 75.2362 196.794C93.3927 207.608 108.058 198.517 115.099 192.42C116.048 191.598 117.46 191.598 118.409 192.42C125.45 198.517 140.115 207.608 158.272 196.794C174.495 185.759 174.713 166.604 174.856 154.025C174.884 151.535 174.91 149.303 175.056 147.443C170.692 146.937 165.279 145.482 159.673 143.975C149.012 141.108 137.652 138.054 131.477 140.98C126.711 143.239 123.075 144.39 120.607 144.913C118.868 145.282 114.64 145.282 112.901 144.913C110.433 144.39 106.797 143.239 102.031 140.98ZM97.3202 166.236C90.9009 162.204 83.2846 164.958 79.0641 167.112C82.6193 177.479 99.0067 180.636 106.639 178.098C107.617 177.773 106.121 176.625 105.859 175.631C104.846 171.781 104.317 170.631 97.3202 166.236ZM125.293 175.893C129.514 178.047 138.308 179.369 144.727 175.337C151.724 170.942 152.842 170.668 153.855 166.818C154.117 165.824 152.477 166.734 151.499 166.409C143.867 163.872 128.848 165.525 125.293 175.893Z" fill="#3EC195"/>
<g filter="url(#filter2_f_0_548)">
<path d="M158.271 169.543C152.382 178.238 132.654 184.525 126.765 182.468C122.643 182.468 123.526 185.993 125.587 188.343C127.648 190.693 140.31 195.981 148.849 195.393C157.388 194.806 163.866 175.712 164.16 169.543C164.396 164.608 160.332 167.487 158.271 169.543Z" fill="#1BFFCE"/>
</g>
<g filter="url(#filter3_f_0_548)">
<path d="M75.5397 169.543C81.4287 178.238 101.157 184.525 107.046 182.468C111.168 182.468 110.285 185.993 108.224 188.343C106.163 190.693 93.5012 195.981 84.9621 195.393C76.4229 194.806 69.9451 175.712 69.6507 169.543C69.4151 164.608 73.4785 167.487 75.5397 169.543Z" fill="#1BFFCE"/>
</g>
<g filter="url(#filter4_f_0_548)">
<path d="M137.955 199.719L141.783 197.662L151.205 194.431L159.155 184.15L171.817 175.631L176.528 184.15L168.872 207.944L151.205 210.294L141.783 202.069H138.544L137.955 199.719Z" fill="#0B8982"/>
</g>
<g filter="url(#filter5_f_0_548)">
<path d="M97.0239 199.719L93.196 197.662L83.7735 194.431L75.8233 184.15L63.1619 175.631L58.4506 184.15L66.1064 207.944L83.7735 210.294L93.196 202.069H96.435L97.0239 199.719Z" fill="#0B8982"/>
</g>
<g filter="url(#filter6_f_0_548)">
<path fill-rule="evenodd" clip-rule="evenodd" d="M116.753 170.344L119.697 195.607L116.458 193.844L113.514 195.607L116.458 170.344H116.753Z" fill="#5EFFDC"/>
</g>
<g filter="url(#filter7_f_0_548)">
<path d="M112.239 193.549C114.124 191.199 111.984 183.206 111.199 180.66C110.61 180.072 110.546 187.17 109.138 189.766C105.173 197.074 94.5719 202.068 96.3386 201.774C98.1053 201.48 109.884 196.486 112.239 193.549Z" fill="#0B9A91"/>
</g>
<g filter="url(#filter8_f_0_548)">
<path d="M121.465 193.55C119.58 191.2 121.72 183.206 122.506 180.661C123.094 180.073 123.158 187.171 124.567 189.767C128.532 197.075 139.132 202.069 137.366 201.775C135.599 201.481 123.82 196.487 121.465 193.55Z" fill="#0B9A91"/>
</g>
<g filter="url(#filter9_f_0_548)">
<path d="M124.139 142.369C116.215 144.946 105.552 142.799 102.422 139.793C102.422 139.793 101.542 151.709 102.422 154.285C103.302 156.862 113.281 158.472 113.281 158.472C123.259 159.438 129.324 154.393 131.476 151.387C131.241 147.522 130.107 141.189 129.422 139.793L124.139 142.369Z" fill="#009B7F"/>
</g>
<g filter="url(#filter10_f_0_548)">
<path d="M150.571 153.557C150.804 150.054 147.175 141.149 146.786 139.793C148.417 139.793 195.35 147.335 202.143 148.899L189.187 169.168L149.989 159.814L150.571 153.557Z" fill="url(#paint1_linear_0_548)"/>
</g>
<g filter="url(#filter11_f_0_548)">
<path fill-rule="evenodd" clip-rule="evenodd" d="M140.898 140.968L146.493 158.299L136.187 160.062V141.555L140.898 140.968Z" fill="#9AFFDD" fill-opacity="0.76"/>
</g>
<g filter="url(#filter12_f_0_548)">
<path d="M82.9346 153.557C82.7017 150.054 86.3313 141.149 86.7195 139.793C85.0891 139.793 38.1558 147.335 31.3625 148.899L44.3184 169.168L83.5169 159.814L82.9346 153.557Z" fill="url(#paint2_linear_0_548)"/>
</g>
<g filter="url(#filter13_f_0_548)">
<path fill-rule="evenodd" clip-rule="evenodd" d="M92.6086 140.968L87.014 158.299L97.3198 160.062V141.555L92.6086 140.968Z" fill="#9AFFDD" fill-opacity="0.76"/>
</g>
<g filter="url(#filter14_f_0_548)">
<path d="M125.292 177.1C127.353 177.883 131.77 179.509 132.948 179.744C133.677 179.889 136.172 179.892 138.62 179.85C141.286 179.804 143.899 179.128 146.286 177.938L147.569 177.297C149.755 176.207 151.603 174.544 152.917 172.485L153.294 171.893C154.429 170.114 155.032 168.048 155.032 165.938V165.938" stroke="#0BFFAE" stroke-width="1.72443"/>
</g>
<g filter="url(#filter15_f_0_548)">
<path d="M108.214 176.218C106.153 177.001 101.736 178.626 100.558 178.861C99.8292 179.007 97.3337 179.01 94.8859 178.968C92.2198 178.922 89.6064 178.246 87.2203 177.055L85.9365 176.415C83.7509 175.325 81.9026 173.661 80.5892 171.602L80.2119 171.011C79.077 169.232 78.4741 167.165 78.4741 165.055V165.055" stroke="#0BFFAE" stroke-width="1.72443"/>
</g>
<path d="M141.782 164.25C145.964 163.257 151.597 165.251 154.444 166.524C154.624 166.165 154.586 165.734 154.34 165.416C152.738 163.348 148.771 158.781 140.604 159.21C133.289 159.594 128.163 167.179 125.516 172.023C124.57 173.753 124.431 175.798 124.998 177.687C127.943 170.637 135.599 165.719 141.782 164.25Z" fill="url(#paint3_linear_0_548)"/>
<path d="M90.5473 164.174C86.3655 163.18 80.7322 165.175 77.8858 166.448C77.7057 166.089 77.7432 165.658 77.9894 165.34C79.5913 163.272 83.5587 158.705 91.7251 159.133C99.0409 159.518 104.167 167.103 106.814 171.947C107.76 173.677 107.899 175.722 107.331 177.611C104.387 170.561 96.7307 165.642 90.5473 164.174Z" fill="url(#paint4_linear_0_548)"/>
<path fill-rule="evenodd" clip-rule="evenodd" d="M154.441 166.444C150.221 164.29 140.543 161.232 134.124 165.264C128.495 168.8 125.966 173.516 124.969 175.969C124.58 176.925 125.009 177.984 125.99 178.31C133.626 180.842 150.887 176.808 154.441 166.444ZM77.885 166.447C82.1055 164.293 91.783 161.235 98.2022 165.267C103.831 168.803 106.36 173.519 107.357 175.972C107.746 176.928 107.317 177.987 106.336 178.312C98.6998 180.845 81.439 176.811 77.885 166.447Z" fill="#0D0D0D"/>
</g>
</g>
<path d="M54.8423 300.548V318.267H59.3486V313.073H62.2464C66.1879 313.073 68.9015 310.605 68.9015 306.823C68.9015 303.016 66.3229 300.548 62.5165 300.548H54.8423ZM59.3486 303.999H61.3255C63.2164 303.999 64.3461 304.993 64.3461 306.835C64.3461 308.689 63.2164 309.684 61.3009 309.684H59.3486V303.999ZM84.0525 314.632H76.4151V311.022H83.5982V307.707H76.4151V304.183H84.0525V300.548H71.9088V318.267H84.0525V314.632ZM92.1064 303.95H94.734C96.3426 303.95 97.3863 304.969 97.3863 306.479C97.3863 308.014 96.404 308.984 94.7463 308.984H92.1064V303.95ZM92.1064 312.066H94.4025L97.4476 318.267H102.507L98.9579 311.403C100.898 310.556 101.991 308.566 101.991 306.393C101.991 302.734 99.6087 300.548 95.1884 300.548H87.6001V318.267H92.1064V312.066ZM104.679 313.048C104.74 316.535 107.663 318.574 112.083 318.574C116.761 318.574 119.548 316.314 119.548 312.754C119.548 309.966 117.829 308.431 114.048 307.707L112.23 307.363C110.303 306.995 109.492 306.479 109.492 305.546C109.492 304.502 110.462 303.765 112.095 303.765C113.728 303.765 114.932 304.527 115.005 305.804H119.192C119.143 302.427 116.516 300.241 112.058 300.241C107.982 300.241 105.023 302.439 105.023 305.853C105.023 308.554 106.852 310.286 110.388 310.949L112.206 311.292C114.305 311.698 115.067 312.201 115.067 313.183C115.067 314.264 113.925 315.05 112.169 315.05C110.438 315.05 109.075 314.313 108.866 313.048H104.679ZM130.905 300.241C125.54 300.241 122.151 303.765 122.151 309.414C122.151 315.062 125.527 318.574 130.905 318.574C136.271 318.574 139.648 315.062 139.648 309.414C139.648 303.765 136.271 300.241 130.905 300.241ZM130.905 303.901C133.422 303.901 135.068 306.037 135.068 309.414C135.068 312.778 133.422 314.915 130.905 314.915C128.376 314.915 126.743 312.778 126.743 309.414C126.743 306.037 128.388 303.901 130.905 303.901ZM147.125 318.267V307.867H147.223L154.774 318.267H158.335V300.548H154.062V310.85H153.964L146.449 300.548H142.852V318.267H147.125ZM173.683 318.267H178.471L172.516 300.548H167.003L161.048 318.267H165.64L166.77 314.374H172.565L173.683 318.267ZM169.618 304.306H169.717L171.681 311.133H167.641L169.618 304.306Z" fill="white"/>
<g filter="url(#filter16_f_0_548)">
<rect x="197.026" y="91.2538" width="169.516" height="169.035" rx="25.8982" fill="black"/>
</g>
<g filter="url(#filter17_f_0_548)">
<rect x="197.026" y="91.2538" width="169.516" height="169.035" rx="25.8982" fill="black" fill-opacity="0.1"/>
</g>
<g clip-path="url(#clip1_0_548)">
<g filter="url(#filter18_f_0_548)">
<rect x="298.109" y="82.11" width="179.341" height="179.341" rx="53.0262" fill="url(#paint5_angular_0_548)"/>
</g>
<g filter="url(#filter19_d_0_548)">
<rect x="305.438" y="89.4395" width="164.683" height="164.683" rx="44.8352" fill="#0D0D0D"/>
</g>
<path d="M409.71 122.504C396.814 117.848 382.601 118.269 370.01 123.68C357.418 129.091 347.412 139.077 342.058 151.575C340.371 155.514 339.177 159.643 338.505 163.869C360.941 122.486 403.048 140.488 403.048 140.488C406.669 141.799 410.038 143.71 413.01 146.139L425.341 131.369C420.677 127.558 415.392 124.56 409.71 122.504Z" fill="url(#paint6_linear_0_548)"/>
<path d="M338.506 163.871C338.071 166.611 337.853 169.38 337.854 172.154C337.86 181.017 340.117 189.736 344.417 197.512C348.717 205.289 354.923 211.874 362.466 216.663C347.253 191.944 357.228 170.877 357.257 170.803C357.477 165.499 358.959 160.321 361.585 155.69C364.21 151.059 367.904 147.106 372.366 144.152C376.828 141.198 381.933 139.327 387.264 138.691C392.596 138.054 398.004 138.671 403.049 140.49C403.049 140.49 360.942 122.488 338.506 163.871Z" fill="url(#paint7_linear_0_548)"/>
<path d="M436.302 160.913H404.632V180.065H416.928V194.413C416.928 194.413 431.386 188.364 436.302 160.913Z" fill="url(#paint8_linear_0_548)"/>
<path d="M416.925 194.413C414.111 197.567 410.73 200.178 406.954 202.113C401.755 204.761 395.955 206.043 390.111 205.836C384.266 205.629 378.574 203.94 373.581 200.931C368.587 197.922 364.46 193.694 361.597 188.654C358.733 183.614 357.228 177.93 357.228 172.149C357.228 171.697 357.239 171.247 357.257 170.798C357.228 170.872 347.253 191.939 362.466 216.658C370.367 221.657 379.458 224.516 388.828 224.949C398.199 225.382 407.52 223.373 415.858 219.125C423.173 215.372 429.521 210.012 434.412 203.455L436.298 200.923V160.913C427.464 186.297 416.925 194.413 416.925 194.413Z" fill="url(#paint9_linear_0_548)"/>
</g>
<path d="M335.423 317.279C332.908 317.279 330.787 316.474 329.061 314.865C327.351 313.256 326.496 311.16 326.496 308.578C326.496 305.98 327.351 303.884 329.061 302.292C330.787 300.699 332.908 299.903 335.423 299.903C338.474 299.903 340.787 301.152 342.363 303.65L339.396 305.259C338.994 304.622 338.44 304.102 337.736 303.7C337.049 303.281 336.278 303.071 335.423 303.071C333.897 303.071 332.64 303.591 331.651 304.63C330.662 305.67 330.167 306.986 330.167 308.578C330.167 310.171 330.662 311.487 331.651 312.526C332.64 313.566 333.897 314.086 335.423 314.086C336.127 314.086 336.806 313.96 337.46 313.708C338.113 313.457 338.625 313.155 338.994 312.803V310.791H334.568V307.673H342.564V314.111C340.67 316.223 338.289 317.279 335.423 317.279ZM358.926 316.952H354.827L351.532 310.992H348.917V316.952H345.346V300.179H353.192C354.919 300.179 356.285 300.682 357.291 301.688C358.314 302.694 358.825 303.993 358.825 305.586C358.825 306.961 358.465 308.075 357.744 308.93C357.04 309.785 356.176 310.33 355.154 310.565L358.926 316.952ZM352.664 307.849C353.402 307.849 354.005 307.648 354.475 307.246C354.944 306.826 355.179 306.273 355.179 305.586C355.179 304.899 354.944 304.354 354.475 303.951C354.005 303.532 353.402 303.323 352.664 303.323H348.917V307.849H352.664ZM377.094 316.952H373.02L371.989 314.111H364.797L363.741 316.952H359.667L366.155 300.179H370.631L377.094 316.952ZM371.008 310.967L368.393 303.75L365.778 310.967H371.008ZM385.203 316.952H378.59V300.179H385.203C387.835 300.179 389.973 300.95 391.616 302.493C393.276 304.035 394.105 306.064 394.105 308.578C394.105 311.093 393.284 313.122 391.641 314.664C389.998 316.189 387.852 316.952 385.203 316.952ZM385.203 313.809C386.813 313.809 388.087 313.306 389.026 312.3C389.981 311.294 390.459 310.054 390.459 308.578C390.459 307.036 389.998 305.779 389.076 304.806C388.154 303.817 386.863 303.323 385.203 303.323H382.161V313.809H385.203ZM400.157 316.952H396.587V300.179H400.157V316.952ZM415.304 316.952H403.434V300.179H415.304V303.323H407.005V306.868H415.128V310.012H407.005V313.809H415.304V316.952ZM433.055 316.952H429.61L421.613 306.013V316.952H418.042V300.179H421.714L429.484 310.716V300.179H433.055V316.952ZM443.778 316.952H440.182V303.323H435.278V300.179H448.657V303.323H443.778V316.952Z" fill="white"/>
<mask id="path-33-outside-1_0_548" maskUnits="userSpaceOnUse" x="215" y="134" width="75" height="75" fill="black">
<rect fill="white" x="215" y="134" width="75" height="75"/>
<path fill-rule="evenodd" clip-rule="evenodd" d="M252.5 154C249.353 154 246.802 156.551 246.802 159.698V165.802H240.698C237.551 165.802 235 168.353 235 171.5C235 174.647 237.551 177.198 240.698 177.198H246.802V183.302C246.802 186.449 249.353 189 252.5 189C255.647 189 258.198 186.449 258.198 183.302V177.198H264.302C267.449 177.198 270 174.647 270 171.5C270 168.353 267.449 165.802 264.302 165.802H258.198V159.698C258.198 156.551 255.647 154 252.5 154Z"/>
</mask>
<path fill-rule="evenodd" clip-rule="evenodd" d="M252.5 154C249.353 154 246.802 156.551 246.802 159.698V165.802H240.698C237.551 165.802 235 168.353 235 171.5C235 174.647 237.551 177.198 240.698 177.198H246.802V183.302C246.802 186.449 249.353 189 252.5 189C255.647 189 258.198 186.449 258.198 183.302V177.198H264.302C267.449 177.198 270 174.647 270 171.5C270 168.353 267.449 165.802 264.302 165.802H258.198V159.698C258.198 156.551 255.647 154 252.5 154Z" fill="black"/>
<path d="M246.802 165.802V185.802H266.802V165.802H246.802ZM246.802 177.198H266.802V157.198H246.802V177.198ZM258.198 177.198V157.198H238.198V177.198H258.198ZM258.198 165.802H238.198V185.802H258.198V165.802ZM266.802 159.698C266.802 167.597 260.399 174 252.5 174V134C238.308 134 226.802 145.505 226.802 159.698H266.802ZM266.802 165.802V159.698H226.802V165.802H266.802ZM240.698 185.802H246.802V145.802H240.698V185.802ZM255 171.5C255 179.399 248.597 185.802 240.698 185.802V145.802C226.505 145.802 215 157.308 215 171.5H255ZM240.698 157.198C248.597 157.198 255 163.601 255 171.5H215C215 185.693 226.505 197.198 240.698 197.198V157.198ZM246.802 157.198H240.698V197.198H246.802V157.198ZM266.802 183.302V177.198H226.802V183.302H266.802ZM252.5 169C260.399 169 266.802 175.403 266.802 183.302H226.802C226.802 197.495 238.308 209 252.5 209V169ZM238.198 183.302C238.198 175.403 244.601 169 252.5 169V209C266.692 209 278.198 197.495 278.198 183.302H238.198ZM238.198 177.198V183.302H278.198V177.198H238.198ZM264.302 157.198H258.198V197.198H264.302V157.198ZM250 171.5C250 163.601 256.403 157.198 264.302 157.198V197.198C278.495 197.198 290 185.693 290 171.5H250ZM264.302 185.802C256.403 185.802 250 179.399 250 171.5H290C290 157.308 278.495 145.802 264.302 145.802V185.802ZM258.198 185.802H264.302V145.802H258.198V185.802ZM238.198 159.698V165.802H278.198V159.698H238.198ZM252.5 174C244.601 174 238.198 167.597 238.198 159.698H278.198C278.198 145.505 266.692 134 252.5 134V174Z" fill="black" mask="url(#path-33-outside-1_0_548)"/>
<mask id="path-35-outside-2_0_548" maskUnits="userSpaceOnUse" x="229" y="148" width="47" height="47" fill="black">
<rect fill="white" x="229" y="148" width="47" height="47"/>
<path fill-rule="evenodd" clip-rule="evenodd" d="M252.5 154C249.353 154 246.802 156.551 246.802 159.698V165.802H240.698C237.551 165.802 235 168.353 235 171.5C235 174.647 237.551 177.198 240.698 177.198H246.802V183.302C246.802 186.449 249.353 189 252.5 189C255.647 189 258.198 186.449 258.198 183.302V177.198H264.302C267.449 177.198 270 174.647 270 171.5C270 168.353 267.449 165.802 264.302 165.802H258.198V159.698C258.198 156.551 255.647 154 252.5 154Z"/>
</mask>
<path fill-rule="evenodd" clip-rule="evenodd" d="M252.5 154C249.353 154 246.802 156.551 246.802 159.698V165.802H240.698C237.551 165.802 235 168.353 235 171.5C235 174.647 237.551 177.198 240.698 177.198H246.802V183.302C246.802 186.449 249.353 189 252.5 189C255.647 189 258.198 186.449 258.198 183.302V177.198H264.302C267.449 177.198 270 174.647 270 171.5C270 168.353 267.449 165.802 264.302 165.802H258.198V159.698C258.198 156.551 255.647 154 252.5 154Z" fill="black"/>
<path d="M246.802 165.802V171.802H252.802V165.802H246.802ZM246.802 177.198H252.802V171.198H246.802V177.198ZM258.198 177.198V171.198H252.198V177.198H258.198ZM258.198 165.802H252.198V171.802H258.198V165.802ZM252.802 159.698C252.802 159.865 252.667 160 252.5 160V148C246.04 148 240.802 153.237 240.802 159.698H252.802ZM252.802 165.802V159.698H240.802V165.802H252.802ZM240.698 171.802H246.802V159.802H240.698V171.802ZM241 171.5C241 171.667 240.865 171.802 240.698 171.802V159.802C234.237 159.802 229 165.04 229 171.5H241ZM240.698 171.198C240.865 171.198 241 171.333 241 171.5H229C229 177.961 234.237 183.198 240.698 183.198V171.198ZM246.802 171.198H240.698V183.198H246.802V171.198ZM252.802 183.302V177.198H240.802V183.302H252.802ZM252.5 183C252.667 183 252.802 183.135 252.802 183.302H240.802C240.802 189.763 246.04 195 252.5 195V183ZM252.198 183.302C252.198 183.135 252.333 183 252.5 183V195C258.96 195 264.198 189.763 264.198 183.302H252.198ZM252.198 177.198V183.302H264.198V177.198H252.198ZM264.302 171.198H258.198V183.198H264.302V171.198ZM264 171.5C264 171.333 264.135 171.198 264.302 171.198V183.198C270.763 183.198 276 177.961 276 171.5H264ZM264.302 171.802C264.135 171.802 264 171.667 264 171.5H276C276 165.04 270.763 159.802 264.302 159.802V171.802ZM258.198 171.802H264.302V159.802H258.198V171.802ZM252.198 159.698V165.802H264.198V159.698H252.198ZM252.5 160C252.333 160 252.198 159.865 252.198 159.698H264.198C264.198 153.237 258.96 148 252.5 148V160Z" fill="url(#paint10_linear_0_548)" mask="url(#path-35-outside-2_0_548)"/>
<defs>
<filter id="filter0_f_0_548" x="-1.77526" y="52.2258" width="237.109" height="237.109" filterUnits="userSpaceOnUse" color-interpolation-filters="sRGB">
<feFlood flood-opacity="0" result="BackgroundImageFix"/>
<feBlend mode="normal" in="SourceGraphic" in2="BackgroundImageFix" result="shape"/>
<feGaussianBlur stdDeviation="14.4421" result="effect1_foregroundBlur_0_548"/>
</filter>
<filter id="filter1_d_0_548" x="30.1271" y="85.8528" width="173.305" height="173.305" filterUnits="userSpaceOnUse" color-interpolation-filters="sRGB">
<feFlood flood-opacity="0" result="BackgroundImageFix"/>
<feColorMatrix in="SourceAlpha" type="matrix" values="0 0 0 0 0 0 0 0 0 0 0 0 0 0 0 0 0 0 127 0" result="hardAlpha"/>
<feOffset dy="1.72443"/>
<feGaussianBlur stdDeviation="2.15554"/>
<feColorMatrix type="matrix" values="0 0 0 0 0 0 0 0 0 0 0 0 0 0 0 0 0 0 0.4 0"/>
<feBlend mode="normal" in2="BackgroundImageFix" result="effect1_dropShadow_0_548"/>
<feBlend mode="normal" in="SourceGraphic" in2="effect1_dropShadow_0_548" result="shape"/>
</filter>
<filter id="filter2_f_0_548" x="116.958" y="159.921" width="54.1097" height="42.4158" filterUnits="userSpaceOnUse" color-interpolation-filters="sRGB">
<feFlood flood-opacity="0" result="BackgroundImageFix"/>
<feBlend mode="normal" in="SourceGraphic" in2="BackgroundImageFix" result="shape"/>
<feGaussianBlur stdDeviation="3.44886" result="effect1_foregroundBlur_0_548"/>
</filter>
<filter id="filter3_f_0_548" x="62.7431" y="159.921" width="54.1097" height="42.4158" filterUnits="userSpaceOnUse" color-interpolation-filters="sRGB">
<feFlood flood-opacity="0" result="BackgroundImageFix"/>
<feBlend mode="normal" in="SourceGraphic" in2="BackgroundImageFix" result="shape"/>
<feGaussianBlur stdDeviation="3.44886" result="effect1_foregroundBlur_0_548"/>
</filter>
<filter id="filter4_f_0_548" x="131.057" y="168.733" width="52.3687" height="48.4584" filterUnits="userSpaceOnUse" color-interpolation-filters="sRGB">
<feFlood flood-opacity="0" result="BackgroundImageFix"/>
<feBlend mode="normal" in="SourceGraphic" in2="BackgroundImageFix" result="shape"/>
<feGaussianBlur stdDeviation="3.44886" result="effect1_foregroundBlur_0_548"/>
</filter>
<filter id="filter5_f_0_548" x="51.5529" y="168.733" width="52.3687" height="48.4584" filterUnits="userSpaceOnUse" color-interpolation-filters="sRGB">
<feFlood flood-opacity="0" result="BackgroundImageFix"/>
<feBlend mode="normal" in="SourceGraphic" in2="BackgroundImageFix" result="shape"/>
<feGaussianBlur stdDeviation="3.44886" result="effect1_foregroundBlur_0_548"/>
</filter>
<filter id="filter6_f_0_548" x="110.927" y="167.757" width="11.3568" height="30.4361" filterUnits="userSpaceOnUse" color-interpolation-filters="sRGB">
<feFlood flood-opacity="0" result="BackgroundImageFix"/>
<feBlend mode="normal" in="SourceGraphic" in2="BackgroundImageFix" result="shape"/>
<feGaussianBlur stdDeviation="1.29332" result="effect1_foregroundBlur_0_548"/>
</filter>
<filter id="filter7_f_0_548" x="93.124" y="177.608" width="22.8885" height="27.1965" filterUnits="userSpaceOnUse" color-interpolation-filters="sRGB">
<feFlood flood-opacity="0" result="BackgroundImageFix"/>
<feBlend mode="normal" in="SourceGraphic" in2="BackgroundImageFix" result="shape"/>
<feGaussianBlur stdDeviation="1.50888" result="effect1_foregroundBlur_0_548"/>
</filter>
<filter id="filter8_f_0_548" x="117.692" y="177.608" width="22.8885" height="27.1965" filterUnits="userSpaceOnUse" color-interpolation-filters="sRGB">
<feFlood flood-opacity="0" result="BackgroundImageFix"/>
<feBlend mode="normal" in="SourceGraphic" in2="BackgroundImageFix" result="shape"/>
<feGaussianBlur stdDeviation="1.50888" result="effect1_foregroundBlur_0_548"/>
</filter>
<filter id="filter9_f_0_548" x="94.7018" y="132.464" width="44.1029" height="33.4578" filterUnits="userSpaceOnUse" color-interpolation-filters="sRGB">
<feFlood flood-opacity="0" result="BackgroundImageFix"/>
<feBlend mode="normal" in="SourceGraphic" in2="BackgroundImageFix" result="shape"/>
<feGaussianBlur stdDeviation="3.66441" result="effect1_foregroundBlur_0_548"/>
</filter>
<filter id="filter10_f_0_548" x="142.475" y="135.482" width="63.9792" height="37.9975" filterUnits="userSpaceOnUse" color-interpolation-filters="sRGB">
<feFlood flood-opacity="0" result="BackgroundImageFix"/>
<feBlend mode="normal" in="SourceGraphic" in2="BackgroundImageFix" result="shape"/>
<feGaussianBlur stdDeviation="2.15554" result="effect1_foregroundBlur_0_548"/>
</filter>
<filter id="filter11_f_0_548" x="132.307" y="137.088" width="18.0658" height="26.8539" filterUnits="userSpaceOnUse" color-interpolation-filters="sRGB">
<feFlood flood-opacity="0" result="BackgroundImageFix"/>
<feBlend mode="normal" in="SourceGraphic" in2="BackgroundImageFix" result="shape"/>
<feGaussianBlur stdDeviation="1.93998" result="effect1_foregroundBlur_0_548"/>
</filter>
<filter id="filter12_f_0_548" x="27.0514" y="135.482" width="63.9792" height="37.9975" filterUnits="userSpaceOnUse" color-interpolation-filters="sRGB">
<feFlood flood-opacity="0" result="BackgroundImageFix"/>
<feBlend mode="normal" in="SourceGraphic" in2="BackgroundImageFix" result="shape"/>
<feGaussianBlur stdDeviation="2.15554" result="effect1_foregroundBlur_0_548"/>
</filter>
<filter id="filter13_f_0_548" x="83.134" y="137.088" width="18.0658" height="26.8539" filterUnits="userSpaceOnUse" color-interpolation-filters="sRGB">
<feFlood flood-opacity="0" result="BackgroundImageFix"/>
<feBlend mode="normal" in="SourceGraphic" in2="BackgroundImageFix" result="shape"/>
<feGaussianBlur stdDeviation="1.93998" result="effect1_foregroundBlur_0_548"/>
</filter>
<filter id="filter14_f_0_548" x="122.83" y="163.782" width="35.2193" height="19.1094" filterUnits="userSpaceOnUse" color-interpolation-filters="sRGB">
<feFlood flood-opacity="0" result="BackgroundImageFix"/>
<feBlend mode="normal" in="SourceGraphic" in2="BackgroundImageFix" result="shape"/>
<feGaussianBlur stdDeviation="1.07777" result="effect1_foregroundBlur_0_548"/>
</filter>
<filter id="filter15_f_0_548" x="75.4564" y="162.9" width="35.2193" height="19.1094" filterUnits="userSpaceOnUse" color-interpolation-filters="sRGB">
<feFlood flood-opacity="0" result="BackgroundImageFix"/>
<feBlend mode="normal" in="SourceGraphic" in2="BackgroundImageFix" result="shape"/>
<feGaussianBlur stdDeviation="1.07777" result="effect1_foregroundBlur_0_548"/>
</filter>
<filter id="filter16_f_0_548" x="106.116" y="0.344093" width="351.335" height="350.854" filterUnits="userSpaceOnUse" color-interpolation-filters="sRGB">
<feFlood flood-opacity="0" result="BackgroundImageFix"/>
<feBlend mode="normal" in="SourceGraphic" in2="BackgroundImageFix" result="shape"/>
<feGaussianBlur stdDeviation="45.4548" result="effect1_foregroundBlur_0_548"/>
</filter>
<filter id="filter17_f_0_548" x="106.116" y="0.344093" width="351.335" height="350.854" filterUnits="userSpaceOnUse" color-interpolation-filters="sRGB">
<feFlood flood-opacity="0" result="BackgroundImageFix"/>
<feBlend mode="normal" in="SourceGraphic" in2="BackgroundImageFix" result="shape"/>
<feGaussianBlur stdDeviation="45.4548" result="effect1_foregroundBlur_0_548"/>
</filter>
<filter id="filter18_f_0_548" x="269.224" y="53.2258" width="237.109" height="237.109" filterUnits="userSpaceOnUse" color-interpolation-filters="sRGB">
<feFlood flood-opacity="0" result="BackgroundImageFix"/>
<feBlend mode="normal" in="SourceGraphic" in2="BackgroundImageFix" result="shape"/>
<feGaussianBlur stdDeviation="14.4421" result="effect1_foregroundBlur_0_548"/>
</filter>
<filter id="filter19_d_0_548" x="301.127" y="86.8528" width="173.305" height="173.305" filterUnits="userSpaceOnUse" color-interpolation-filters="sRGB">
<feFlood flood-opacity="0" result="BackgroundImageFix"/>
<feColorMatrix in="SourceAlpha" type="matrix" values="0 0 0 0 0 0 0 0 0 0 0 0 0 0 0 0 0 0 127 0" result="hardAlpha"/>
<feOffset dy="1.72443"/>
<feGaussianBlur stdDeviation="2.15554"/>
<feColorMatrix type="matrix" values="0 0 0 0 0 0 0 0 0 0 0 0 0 0 0 0 0 0 0.24 0"/>
<feBlend mode="normal" in2="BackgroundImageFix" result="effect1_dropShadow_0_548"/>
<feBlend mode="normal" in="SourceGraphic" in2="effect1_dropShadow_0_548" result="shape"/>
</filter>
<radialGradient id="paint0_angular_0_548" cx="0" cy="0" r="1" gradientUnits="userSpaceOnUse" gradientTransform="translate(116.779 170.78) rotate(41.7533) scale(94.194)">
<stop stop-color="#2FB890"/>
<stop offset="0.0001" stop-color="#40C9BE"/>
<stop offset="0.210806" stop-color="#43B7D1"/>
<stop offset="0.352218" stop-color="#4599D8"/>
<stop offset="0.501103" stop-color="#4877E0"/>
<stop offset="0.646939" stop-color="#6E4DF0"/>
<stop offset="0.824025" stop-color="#9D4FF7"/>
<stop offset="1" stop-color="#4A89E8"/>
</radialGradient>
<linearGradient id="paint1_linear_0_548" x1="150.571" y1="150.742" x2="182.815" y2="155.876" gradientUnits="userSpaceOnUse">
<stop stop-color="#009B7F"/>
<stop offset="1" stop-color="#3EC195" stop-opacity="0"/>
</linearGradient>
<linearGradient id="paint2_linear_0_548" x1="82.9346" y1="150.742" x2="50.691" y2="155.876" gradientUnits="userSpaceOnUse">
<stop stop-color="#009B7F"/>
<stop offset="1" stop-color="#3EC195" stop-opacity="0"/>
</linearGradient>
<linearGradient id="paint3_linear_0_548" x1="117.048" y1="164.25" x2="117.928" y2="170.419" gradientUnits="userSpaceOnUse">
<stop stop-color="#05796F"/>
<stop offset="1" stop-color="#1DAC8B"/>
</linearGradient>
<linearGradient id="paint4_linear_0_548" x1="115.576" y1="164.25" x2="114.696" y2="170.419" gradientUnits="userSpaceOnUse">
<stop stop-color="#05796F"/>
<stop offset="1" stop-color="#1DAC8B"/>
</linearGradient>
<radialGradient id="paint5_angular_0_548" cx="0" cy="0" r="1" gradientUnits="userSpaceOnUse" gradientTransform="translate(387.779 171.78) rotate(41.7533) scale(94.194)">
<stop offset="0.0170481" stop-color="#C51E7A"/>
<stop offset="0.223958" stop-color="#6D1681"/>
<stop offset="0.457032" stop-color="#46C0C7"/>
<stop offset="0.699923" stop-color="#40C9BE"/>
<stop offset="0.826186" stop-color="#FF9B5B"/>
</radialGradient>
<linearGradient id="paint6_linear_0_548" x1="337.09" y1="160.826" x2="425.431" y2="131.579" gradientUnits="userSpaceOnUse">
<stop stop-color="#48176D"/>
<stop offset="1" stop-color="#47FFC8"/>
</linearGradient>
<linearGradient id="paint7_linear_0_548" x1="349.301" y1="208.777" x2="403.565" y2="143.273" gradientUnits="userSpaceOnUse">
<stop stop-color="#531D99"/>
<stop offset="1" stop-color="#4C98F1"/>
</linearGradient>
<linearGradient id="paint8_linear_0_548" x1="400.434" y1="177.435" x2="436.302" y2="177.668" gradientUnits="userSpaceOnUse">
<stop offset="0.0250105" stop-color="#F0B358"/>
<stop offset="1" stop-color="#EC2C66"/>
</linearGradient>
<linearGradient id="paint9_linear_0_548" x1="354.018" y1="192.96" x2="436.298" y2="192.96" gradientUnits="userSpaceOnUse">
<stop stop-color="#521383"/>
<stop offset="1" stop-color="#C71E79"/>
</linearGradient>
<linearGradient id="paint10_linear_0_548" x1="230.93" y1="157.663" x2="273.256" y2="191.849" gradientUnits="userSpaceOnUse">
<stop offset="0.377888" stop-color="#5367E8"/>
<stop offset="1" stop-color="#00FFC7"/>
</linearGradient>
<clipPath id="clip0_0_548">
<rect width="233.507" height="232.845" fill="white" transform="translate(0 54.0001)"/>
</clipPath>
<clipPath id="clip1_0_548">
<rect width="233.507" height="232.845" fill="white" transform="translate(271 55.0001)"/>
</clipPath>
</defs>
</svg>
