<svg width="260" height="229" viewBox="0 0 260 229" fill="none" xmlns="http://www.w3.org/2000/svg">
<g clip-path="url(#clip0_0_320)">
<g filter="url(#filter0_f_0_320)">
<circle cx="126.5" cy="96.5" r="35.5" fill="#4A8FBE"/>
</g>
<path fill-rule="evenodd" clip-rule="evenodd" d="M109.97 113.413L103.793 101.431C102.985 99.8647 101.033 99.2914 99.5069 100.172L96.2041 102.079C94.6782 102.96 94.1985 104.938 95.151 106.42L105.093 121.891L106.121 121.297L109.97 113.413ZM106.121 121.297L105.093 121.891L105.509 122.551L106.121 121.297ZM129.208 160.181L132.308 165.103L133.535 167.051L133.619 167.185L134.178 167.462C135.494 168.112 137.048 167.215 137.143 165.75L137.183 165.128L137.109 164.988L136.035 162.952L133.449 158.047C132.11 158.914 130.687 159.628 129.208 160.181ZM77.4356 95.7774C77.0696 95.6108 76.9024 95.1833 77.0583 94.8126C81.2121 84.9387 91.2932 78.9025 101.958 79.9036L102.729 79.976C103.156 80.0161 103.47 80.3955 103.428 80.8226L102.255 92.9215C101.967 95.8974 100.259 98.5507 97.6695 100.046L97.0131 100.425C94.4238 101.92 91.272 102.072 88.5506 100.834L77.4356 95.7774Z" fill="#48B1FA"/>
<path d="M147.873 125.82C148.001 125.63 147.941 125.37 147.742 125.255L119.955 109.213C119.756 109.098 119.502 109.176 119.401 109.382L108.256 132.213C104.865 139.158 107.427 147.542 114.12 151.406C120.813 155.271 129.355 153.297 133.674 146.888L147.873 125.82Z" fill="#48B1FA"/>
<path d="M167.047 110.184C169.253 108.772 170.169 106.007 169.241 103.557L169.039 103.024C162.74 86.3961 145.465 76.6389 127.973 79.8287V79.8287C125.51 80.2778 123.672 82.3509 123.522 84.85L121.947 111L145.447 124L167.047 110.184Z" stroke="#48B1FA" stroke-width="8"/>
</g>
<defs>
<filter id="filter0_f_0_320" x="-12" y="-42" width="277" height="277" filterUnits="userSpaceOnUse" color-interpolation-filters="sRGB">
<feFlood flood-opacity="0" result="BackgroundImageFix"/>
<feBlend mode="normal" in="SourceGraphic" in2="BackgroundImageFix" result="shape"/>
<feGaussianBlur stdDeviation="51.5" result="effect1_foregroundBlur_0_320"/>
</filter>
<clipPath id="clip0_0_320">
<rect width="260" height="229" fill="white"/>
</clipPath>
</defs>
</svg>
