<svg width="145" height="38" viewBox="0 0 145 38" fill="none" xmlns="http://www.w3.org/2000/svg">
<path fill-rule="evenodd" clip-rule="evenodd" d="M17.8166 5.77959C18.8604 4.34959 19.6432 2.52959 19.5127 0.57959C17.9471 0.70959 15.8596 1.61959 14.8158 3.04959C13.7721 4.21959 12.8588 6.16959 13.1197 7.98959C14.8158 8.11959 16.6424 7.07959 17.8166 5.77959ZM21.8612 17.7397C21.8612 14.0733 24.6689 12.1285 25.2738 11.7095C25.3337 11.668 25.3721 11.6415 25.3838 11.6297C23.4268 8.89973 20.5565 8.50973 19.5127 8.37973C17.973 8.21823 16.4332 8.80909 15.2061 9.27997C14.4577 9.56717 13.8256 9.80973 13.3807 9.80973C12.8047 9.80973 12.1014 9.53097 11.316 9.2196C10.3224 8.82575 9.19731 8.37973 8.03148 8.37973C5.29163 8.37973 2.81273 9.93973 1.37757 12.4097C-1.49274 17.3497 0.594762 24.6297 3.33461 28.6597L3.44832 28.8144C4.85262 30.7246 6.39039 32.8163 8.42289 32.6897C9.37865 32.6302 10.0609 32.3527 10.7577 32.0692C11.5828 31.7336 12.4282 31.3897 13.7721 31.3897C15.046 31.3897 15.8375 31.7331 16.6071 32.0668C17.335 32.3826 18.0432 32.6897 19.1213 32.6897C21.3393 32.6897 22.7745 30.7397 24.0791 28.7897C25.6448 26.5797 26.2971 24.3697 26.2971 24.2397C26.2835 24.2261 26.2241 24.1969 26.1288 24.1499L26.1288 24.1499L26.1287 24.1499C25.3128 23.7477 21.8612 22.0464 21.8612 17.7397ZM54.7379 32.4297H57.6082L52.3895 15.6597H48.9973L43.5176 32.4297H46.2574L47.6926 27.4897H53.1723L54.7379 32.4297ZM51.2152 20.9897L52.6504 25.4097H48.084L49.5192 20.9897C49.9106 19.6897 50.1715 18.5197 50.302 17.8697C50.6499 18.9096 50.8818 19.7763 51.0364 20.3541L51.0364 20.3541C51.1138 20.643 51.1718 20.8597 51.2152 20.9897ZM71.5684 26.32C71.5684 28.4 71.0465 29.96 69.8723 31.26C68.8285 32.3 67.6543 32.82 66.0887 32.82C64.5231 32.82 63.3488 32.3 62.6965 31.13V37.5H59.9566V24.5C59.9566 23.2 59.9566 21.9 59.8262 20.47H62.1746L62.3051 22.42C63.2184 20.99 64.523 20.21 66.3496 20.21C67.7848 20.21 68.959 20.73 69.8723 21.9C71.0465 22.94 71.5684 24.37 71.5684 26.32ZM68.8285 26.32C68.8285 25.15 68.5676 24.11 68.0457 23.46C67.5238 22.68 66.741 22.29 65.6973 22.29C65.0449 22.29 64.3926 22.55 63.8707 22.94C63.3488 23.33 62.9574 23.98 62.827 24.63C62.6965 25.02 62.6965 25.28 62.6965 25.41V27.49C62.6965 28.4 62.9574 29.05 63.4793 29.7C64.0012 30.35 64.784 30.61 65.5668 30.61C66.6105 30.61 67.3934 30.22 67.9152 29.44C68.5676 28.66 68.8285 27.62 68.8285 26.32ZM83.8322 31.26C85.0064 29.96 85.5283 28.4 85.5283 26.32C85.5283 24.37 85.0064 22.94 83.8322 21.9C82.9189 20.73 81.7447 20.21 80.3096 20.21C78.483 20.21 77.1783 20.99 76.265 22.42L76.1346 20.47H73.7861C73.9166 21.9 73.9166 23.2 73.9166 24.5V37.5H76.6564V31.13C77.3088 32.3 78.483 32.82 80.0486 32.82C81.6143 32.82 82.7885 32.3 83.8322 31.26ZM82.0057 23.46C82.5275 24.11 82.7885 25.15 82.7885 26.32C82.7885 27.62 82.5275 28.66 81.8752 29.44C81.3533 30.22 80.5705 30.61 79.5268 30.61C78.7439 30.61 77.9611 30.35 77.4393 29.7C76.9174 29.05 76.6564 28.4 76.6564 27.49V25.41C76.6564 25.28 76.6564 25.02 76.7869 24.63C76.9174 23.98 77.3088 23.33 77.8307 22.94C78.3525 22.55 79.0049 22.29 79.6572 22.29C80.701 22.29 81.4838 22.68 82.0057 23.46ZM101.185 27.7498C101.185 29.1798 100.663 30.3498 99.7498 31.2598C98.706 32.2998 97.1404 32.6898 95.1834 32.6898C93.3568 32.6898 91.9217 32.2998 90.8779 31.6498L91.5303 29.4398C92.7045 30.0898 94.0092 30.4798 95.4443 30.4798C96.4881 30.4798 97.2709 30.2198 97.7928 29.8298C98.3146 29.3098 98.5756 28.7898 98.5756 28.0098C98.5756 27.3598 98.3146 26.7098 97.9232 26.3198C97.4014 25.7998 96.6185 25.4098 95.5748 25.0198C92.574 23.9798 91.1389 22.2898 91.1389 20.2098C91.1389 18.7798 91.6607 17.7398 92.7045 16.8298C93.7482 15.9198 95.0529 15.5298 96.8795 15.5298C98.4451 15.5298 99.6193 15.7898 100.663 16.3098L100.011 18.5198C99.0975 17.9998 98.0537 17.7398 96.749 17.7398C95.8357 17.7398 95.0529 17.9998 94.5311 18.3898C94.1396 18.7798 93.8787 19.2998 93.8787 19.9498C93.8787 20.5998 94.1396 21.1198 94.6615 21.6398C95.0296 22.0065 95.8591 22.3733 96.9331 22.8481L97.1404 22.9398C98.5756 23.4598 99.6193 24.2398 100.402 25.0198C100.794 25.6698 101.185 26.5798 101.185 27.7498ZM107.056 22.4196H110.057V20.3396H107.056V17.3496L104.447 18.1296V20.3396H102.62V22.4196H104.447V28.5296C104.447 30.0896 104.708 31.1296 105.36 31.7796C105.882 32.4296 106.795 32.6896 107.839 32.6896C108.752 32.6896 109.405 32.6896 109.926 32.4296L109.796 30.3496C109.535 30.4796 109.144 30.4796 108.622 30.4796C107.578 30.4796 107.056 29.6996 107.056 28.2696V22.4196ZM123.495 26.3196C123.495 28.1396 122.973 29.6996 121.929 30.8696C120.755 32.0396 119.32 32.6896 117.493 32.6896C115.667 32.6896 114.231 32.0396 113.188 30.8696C112.144 29.6996 111.622 28.2696 111.622 26.4496C111.622 24.6296 112.144 23.0696 113.318 21.8996C114.362 20.7296 115.928 20.0796 117.754 20.0796C119.581 20.0796 121.016 20.7296 122.06 21.8996C122.973 23.0696 123.495 24.4996 123.495 26.3196ZM120.624 26.4496C120.624 25.2796 120.363 24.3696 119.842 23.5896C119.32 22.6796 118.406 22.1596 117.363 22.1596C116.319 22.1596 115.406 22.6796 114.884 23.5896C114.362 24.3696 114.101 25.4096 114.101 26.4496C114.101 27.6196 114.362 28.5296 114.884 29.3096C115.406 30.2196 116.319 30.7396 117.363 30.7396C118.406 30.7396 119.189 30.2196 119.842 29.3096C120.363 28.5296 120.624 27.4896 120.624 26.4496ZM132.106 22.6702C132.15 22.6761 132.193 22.6797 132.236 22.6797H132.106V22.6702ZM132.106 22.6702C132.031 22.66 131.954 22.6428 131.873 22.6245C131.715 22.5891 131.539 22.5497 131.323 22.5497C130.41 22.5497 129.627 22.9397 129.105 23.5897C128.714 24.2397 128.453 25.0197 128.453 25.9297V32.2997H125.713V23.9797V23.9792C125.713 22.5494 125.713 21.3796 125.583 20.2097H127.931L128.061 22.5497H128.192C128.453 21.7697 128.975 21.1197 129.497 20.5997C130.149 20.2097 130.801 19.9497 131.454 19.9497H132.106V22.6702ZM144.24 25.7996V25.7998C144.24 26.3197 144.24 26.7096 144.109 26.9696H136.02C136.02 28.1396 136.411 29.0496 137.194 29.6996C137.847 30.2196 138.76 30.6096 139.804 30.6096C140.978 30.6096 142.152 30.4796 143.065 30.0896L143.457 31.9096C142.283 32.4296 140.978 32.6896 139.412 32.6896C137.586 32.6896 136.02 32.1696 134.976 30.9996C133.933 29.9596 133.411 28.3996 133.411 26.5796C133.411 24.7596 133.933 23.1996 134.846 22.0296C135.89 20.7296 137.325 20.0796 139.151 20.0796C140.847 20.0796 142.283 20.7296 143.065 22.0296C143.979 23.0696 144.24 24.3696 144.24 25.7996ZM141.239 23.0696C141.608 23.6832 141.745 24.2967 141.759 25.0196H136.281C136.411 24.2396 136.672 23.4596 137.064 22.9396C137.586 22.2896 138.238 21.8996 139.151 21.8996C140.065 21.8996 140.717 22.2896 141.239 23.0696ZM50.5627 8.76975C51.476 7.98975 51.8674 6.81975 51.8674 5.38975C51.8674 4.08975 51.3455 3.04975 50.6932 2.39975C49.9103 1.74975 48.8666 1.48975 47.4314 1.48975C46.5182 1.48975 45.7354 1.48975 45.083 1.61975V9.67974C45.6049 9.80974 46.2572 9.80975 47.04 9.80975C48.6057 9.80975 49.7799 9.41975 50.5627 8.76975ZM49.6494 3.17975C50.1713 3.69975 50.4322 4.47975 50.4322 5.38975C50.4322 6.42975 50.1713 7.33975 49.6494 7.85975C49.1275 8.37975 48.3447 8.63975 47.301 8.63975H46.3877V2.52975C46.6486 2.39975 47.04 2.39975 47.4314 2.39975C48.3447 2.39975 49.1275 2.65975 49.6494 3.17975ZM59.1738 6.68982C59.1738 7.59982 58.9129 8.37982 58.391 8.89982C57.8691 9.54982 57.0863 9.80982 56.1731 9.80982C55.2598 9.80982 54.6074 9.54982 54.0856 8.89982C53.5637 8.37982 53.3027 7.59982 53.3027 6.68982C53.3027 5.77982 53.5637 4.99983 54.0856 4.47983C54.6074 3.82983 55.3902 3.56982 56.3035 3.56982C57.2168 3.56982 57.8691 3.82983 58.391 4.47983C58.9129 4.99983 59.1738 5.77982 59.1738 6.68982ZM57.8691 6.68982C57.8691 6.16982 57.7387 5.64983 57.4777 5.25983C57.2168 4.73983 56.8254 4.60983 56.3035 4.60983C55.7816 4.60983 55.3902 4.86983 55.1293 5.25983C54.8684 5.64983 54.7379 6.16982 54.7379 6.68982C54.7379 7.20982 54.8684 7.72982 55.1293 8.11982C55.3902 8.63982 55.7816 8.76982 56.3035 8.76982C56.8254 8.76982 57.2168 8.50982 57.4777 7.98982C57.7387 7.72982 57.8691 7.20982 57.8691 6.68982ZM67.3934 9.67971L69.2199 3.69971H67.6543L66.8715 6.42971L66.4801 8.37971C66.3496 7.72971 66.2191 7.07971 65.9582 6.42971L65.1754 3.69971H64.1316L63.3488 6.55971C63.1495 7.15559 63.0263 7.6756 62.9211 8.11974L62.921 8.11986L62.921 8.12016L62.9208 8.12101C62.8884 8.25778 62.8577 8.38734 62.827 8.50971L62.4355 6.55971L61.7832 3.69971H60.4785L62.4355 9.67971H63.6098L64.3926 7.07971C64.6535 6.42971 64.784 5.77971 64.9145 5.12971C65.0449 5.77971 65.1754 6.42971 65.4363 7.07971L66.2191 9.67971H67.3934ZM74.6996 9.67994V6.29994C74.6996 5.25994 74.3082 4.73994 73.5254 4.73994C73.134 4.73994 72.873 4.86994 72.6121 5.12994C72.3512 5.38994 72.2207 5.77994 72.2207 6.16994V9.67994H70.916V5.38994V3.69994H72.0902V4.60994C72.2207 4.34996 72.4816 4.08997 72.7425 3.82999L72.7426 3.82994C73.134 3.56994 73.5254 3.43994 73.9168 3.43994C74.4387 3.43994 74.9605 3.56994 75.352 3.95994C75.8738 4.34994 76.0043 4.99994 76.0043 5.90994V9.67994H74.6996ZM78.3525 9.67972H79.6562V0.969727H78.3525V9.67972ZM87.4854 6.68982C87.4854 7.59982 87.2244 8.37982 86.7025 8.89982C86.1807 9.54982 85.3979 9.80982 84.4846 9.80982C83.5713 9.80982 82.9189 9.54982 82.3971 8.89982C81.8752 8.37982 81.6143 7.59982 81.6143 6.68982C81.6143 5.77982 81.8752 4.99983 82.3971 4.47983C82.9189 3.95983 83.7018 3.56982 84.615 3.56982C85.5283 3.56982 86.1807 3.82983 86.7025 4.47983C87.2244 4.99983 87.4854 5.77982 87.4854 6.68982ZM86.1807 6.68982C86.1807 6.16982 86.0502 5.64983 85.7893 5.25983C85.5283 4.73983 85.1369 4.60983 84.615 4.60983C84.0932 4.60983 83.7018 4.86983 83.4408 5.25983C83.1799 5.64983 83.0494 6.16982 83.0494 6.68982C83.0494 7.20982 83.1799 7.72982 83.4408 8.11982C83.7018 8.63982 84.0932 8.76982 84.615 8.76982C85.1369 8.76982 85.5283 8.50982 85.7893 7.98982C86.0502 7.72982 86.1807 7.20982 86.1807 6.68982ZM92.7044 9.67982H93.8786C93.8786 9.28982 93.8786 8.89982 94.0091 8.24982V6.03982C94.0091 4.34982 93.2263 3.56982 91.6606 3.56982C90.7474 3.56982 90.095 3.69982 89.5731 4.08982L89.8341 4.99982C90.3559 4.73982 90.7474 4.60983 91.3997 4.60983C92.1825 4.60983 92.5739 4.99983 92.5739 5.77982V5.90983C91.3997 5.90983 90.6169 6.03982 89.9646 6.42982C89.3122 6.81982 89.0513 7.33982 89.0513 8.11982C89.0513 8.50982 89.3122 8.89982 89.5731 9.28982C89.8341 9.67982 90.356 9.80982 90.8778 9.80982C91.5302 9.80982 92.1825 9.54982 92.5739 9.02982L92.7044 9.67982ZM92.5739 6.68982V7.59982V7.85983C92.4435 8.11983 92.313 8.37983 92.052 8.50983C91.7911 8.63982 91.5302 8.76982 91.2692 8.76982C91.0083 8.76982 90.7474 8.63982 90.6169 8.50983C90.4864 8.37983 90.356 8.11983 90.356 7.85983C90.356 7.07983 91.1388 6.68982 92.5739 6.68982ZM101.446 9.67961H100.271V8.76961C99.88 9.54961 99.2276 9.80961 98.3143 9.80961C97.5315 9.80961 97.0097 9.54961 96.4878 9.02961C95.9659 8.50961 95.8354 7.72961 95.8354 6.81961C95.8354 5.90961 96.0964 5.12961 96.6183 4.47961C97.1401 3.95961 97.7925 3.69961 98.4448 3.69961C99.2276 3.69961 99.7495 3.95961 100.141 4.47961V1.09961H101.446V8.11961V9.67961ZM100.141 7.20961V6.16961V5.77961C100.01 5.51961 99.88 5.25961 99.619 4.99961C99.3581 4.73961 99.0972 4.73961 98.7058 4.73961C98.1839 4.73961 97.7925 4.99961 97.5315 5.38961C97.2706 5.77961 97.1401 6.29961 97.1401 6.94961C97.1401 7.59961 97.2706 7.98961 97.5315 8.37961C97.7925 8.76961 98.1839 9.02961 98.7058 9.02961C99.0972 9.02961 99.4886 8.89961 99.7495 8.50961C100.01 7.98961 100.141 7.59961 100.141 7.20961ZM112.014 8.89982C112.535 8.37982 112.796 7.59982 112.796 6.68982C112.796 5.77982 112.535 4.99983 112.014 4.47983C111.492 3.82983 110.839 3.56982 109.926 3.56982C109.013 3.56982 108.23 3.82983 107.708 4.47983C107.186 4.99983 106.925 5.77982 106.925 6.68982C106.925 7.59982 107.186 8.37982 107.708 8.89982C108.23 9.54982 108.882 9.80982 109.796 9.80982C110.709 9.80982 111.492 9.54982 112.014 8.89982ZM110.97 5.25983C111.231 5.64983 111.361 6.16982 111.361 6.68982C111.361 7.20982 111.231 7.72982 110.97 7.98982C110.709 8.50982 110.317 8.76982 109.796 8.76982C109.274 8.76982 108.882 8.63982 108.621 8.11982C108.36 7.72982 108.23 7.20982 108.23 6.68982C108.23 6.16982 108.36 5.64983 108.621 5.25983C108.882 4.86983 109.274 4.60983 109.796 4.60983C110.317 4.60983 110.709 4.73983 110.97 5.25983ZM118.667 9.67994V6.29994C118.667 5.25994 118.276 4.73994 117.493 4.73994C117.102 4.73994 116.841 4.86994 116.58 5.12994C116.319 5.38994 116.188 5.77994 116.188 6.16994V9.67994H114.884V5.38994V3.69994H116.058V4.60994C116.188 4.34996 116.449 4.08997 116.71 3.82999L116.71 3.82994C117.102 3.56994 117.493 3.43994 117.885 3.43994C118.406 3.43994 118.928 3.56994 119.32 3.95994C119.842 4.34994 119.972 4.99994 119.972 5.90994V9.67994H118.667ZM127.409 4.74002H128.844H128.974V3.70002H127.539V2.27002L126.235 2.66002V3.70002H125.321V4.74002H126.235V7.73002C126.235 8.38002 126.365 9.03002 126.626 9.29002C126.887 9.68002 127.278 9.81002 127.8 9.81002C128.192 9.81002 128.583 9.81002 128.844 9.68002V8.64002H128.192C127.67 8.64002 127.409 8.38002 127.409 7.60002V4.74002ZM135.89 9.67972H134.585V6.29973C134.585 5.25973 134.193 4.73973 133.411 4.73973C132.758 4.73973 132.367 4.99973 132.106 5.64973V6.16973V9.67972H130.801V0.969727H132.106V4.60973C132.497 3.95973 133.15 3.56973 133.933 3.56973C134.454 3.56973 134.976 3.69973 135.237 4.08973C135.629 4.47973 135.89 5.25973 135.89 6.03972V9.67972ZM143.065 7.07971V6.42971C143.065 5.64971 142.935 4.99971 142.674 4.60971C142.283 3.95971 141.63 3.69971 140.717 3.69971C139.804 3.69971 139.151 3.95971 138.63 4.60971C138.108 5.12971 137.847 5.90971 137.847 6.81971C137.847 7.72971 138.108 8.50971 138.63 9.02971C139.151 9.54971 139.934 9.80971 140.847 9.80971C141.63 9.80971 142.283 9.67971 142.804 9.41971L142.544 8.50971C142.152 8.63971 141.63 8.76971 140.978 8.76971C140.456 8.76971 140.065 8.63971 139.673 8.37971C139.412 8.11971 139.151 7.72971 139.151 7.07971H143.065ZM141.63 4.99971C141.761 5.25971 141.891 5.64971 141.891 6.03971H139.151C139.151 5.64971 139.282 5.25971 139.543 4.99971C139.804 4.60971 140.195 4.47971 140.587 4.47971C141.108 4.47971 141.369 4.60971 141.63 4.99971Z" fill="white"/>
</svg>
