<svg width="155" height="36" viewBox="0 0 155 36" fill="none" xmlns="http://www.w3.org/2000/svg">
<path fill-rule="evenodd" clip-rule="evenodd" d="M49.7111 5.79353C49.883 5.34669 49.9603 4.87056 49.9384 4.39381C49.9332 4.1936 49.9154 3.99389 49.8851 3.79582H46.0054V4.73181H48.9118C48.8886 5.32063 48.6524 5.88245 48.2452 6.31781C47.8685 6.671 47.4088 6.92883 46.9063 7.06878C46.4038 7.20872 45.8737 7.22652 45.3626 7.12062C44.8514 7.01471 44.3746 6.78833 43.9738 6.46126C43.5731 6.13418 43.2606 5.71637 43.0636 5.24435C42.8667 4.77233 42.7914 4.26046 42.8442 3.75348C42.897 3.24651 43.0764 2.75986 43.3666 2.33608C43.6568 1.9123 44.0491 1.56428 44.5091 1.32245C44.9691 1.08062 45.4828 0.952339 46.0054 0.948815C46.4194 0.928378 46.8326 1.00233 47.2121 1.16481C47.5917 1.32729 47.9271 1.57382 48.1919 1.88481L48.8985 1.19582C48.5548 0.815544 48.126 0.517515 47.6453 0.324815C46.8805 0.00924167 46.0371 -0.0789124 45.2212 0.0714297C44.4052 0.221772 43.6529 0.603904 43.059 1.16981C42.2821 1.94466 41.8472 2.98521 41.8472 4.06881C41.8472 5.15241 42.2821 6.19297 43.059 6.96781C43.4419 7.349 43.901 7.64951 44.4078 7.85075C44.9146 8.052 45.4583 8.1497 46.0054 8.13782C46.5494 8.15922 47.0918 8.06838 47.5972 7.87124C48.1027 7.6741 48.5597 7.3751 48.9385 6.99381C49.2765 6.64866 49.5393 6.24036 49.7111 5.79353ZM52.4452 1.14364H56.0449V0.181641H51.4053V7.98164H56.0449V7.01964H52.4452V4.54964H55.7249V3.61364H52.4452V1.14364ZM60.4187 7.98164H59.3921V1.14364H57.1523V0.181641H62.7119V1.14364H60.4187V7.98164ZM66.6323 0.181641V7.98164H67.6589V0.181641H66.6323ZM72.2185 7.98164H71.192V1.14364H68.9521V0.181641H74.445V1.14364H72.2185V7.98164ZM83.5128 7.8448C84.0161 7.64141 84.4733 7.34331 84.8584 6.96753C85.2461 6.59044 85.5504 6.1397 85.7522 5.64327C85.954 5.14683 86.0491 4.61528 86.0316 4.08153C86.0437 3.54846 85.9461 3.01842 85.7446 2.52274C85.5431 2.02706 85.2417 1.57577 84.8584 1.19553C84.4781 0.813616 84.0218 0.511634 83.5173 0.308182C83.0129 0.10473 82.4711 0.00411573 81.9253 0.0125347C81.3787 -0.00141521 80.8352 0.0966736 80.33 0.300456C79.8247 0.504237 79.369 0.809173 78.9922 1.19553C78.2385 1.97677 77.8188 3.00895 77.8188 4.08153C77.8188 5.15412 78.2385 6.1863 78.9922 6.96753C79.3773 7.34331 79.8345 7.64141 80.3378 7.8448C80.841 8.04819 81.3805 8.15287 81.9253 8.15287C82.4701 8.15287 83.0095 8.04819 83.5128 7.8448ZM80.7476 6.9731C80.3745 6.82101 80.0361 6.59817 79.7521 6.31753C79.1769 5.708 78.8576 4.9099 78.8576 4.08153C78.8576 3.25317 79.1769 2.45507 79.7521 1.84553C80.0361 1.56489 80.3745 1.34206 80.7476 1.18997C81.1206 1.03787 81.5209 0.959556 81.9253 0.959556C82.3296 0.959556 82.73 1.03787 83.103 1.18997C83.4761 1.34206 83.8144 1.56489 84.0984 1.84553C84.6737 2.45507 84.993 3.25317 84.993 4.08153C84.993 4.9099 84.6737 5.708 84.0984 6.31753C83.8144 6.59817 83.4761 6.82101 83.103 6.9731C82.73 7.1252 82.3296 7.20351 81.9253 7.20351C81.5209 7.20351 81.1206 7.1252 80.7476 6.9731ZM87.4854 7.98164V0.181641H88.7252L92.6182 6.25264V4.74464V0.181641H93.6448V7.98164H92.5782L88.5119 1.62464V3.11964V7.98164H87.4854ZM74.4122 20.2973C75.3448 19.6866 76.4421 19.3593 77.5655 19.3567C78.3149 19.3427 79.0595 19.4758 79.755 19.7482C80.4505 20.0206 81.0827 20.4266 81.6139 20.9421C82.1451 21.4576 82.5645 22.0721 82.8471 22.7489C83.1297 23.4257 83.2697 24.1511 83.2589 24.8817C83.2615 25.977 82.931 27.0485 82.309 27.9607C81.6871 28.8728 80.8017 29.5846 79.7648 30.0062C78.728 30.4277 77.5862 30.54 76.4839 30.3288C75.3815 30.1177 74.3682 29.5925 73.572 28.8199C72.7757 28.0472 72.2324 27.0616 72.0107 25.9879C71.7889 24.9141 71.8987 23.8004 72.3262 22.7874C72.7536 21.7745 73.4796 20.9079 74.4122 20.2973ZM75.5935 27.7877C76.1899 28.1266 76.877 28.2827 77.5655 28.2357C78.0033 28.2258 78.4346 28.1306 78.834 27.9556C79.2334 27.7806 79.5928 27.5294 79.8911 27.2168C80.1893 26.9042 80.4203 26.5365 80.5705 26.1355C80.7207 25.7344 80.787 25.3082 80.7655 24.8817C80.7639 24.2088 80.5546 23.5518 80.1649 22.9964C79.7752 22.4409 79.2231 22.0126 78.5805 21.767C77.9378 21.5215 77.2342 21.4702 76.5612 21.6197C75.8882 21.7693 75.277 22.1127 74.8068 22.6055C74.3367 23.0982 74.0295 23.7175 73.9251 24.3827C73.8207 25.048 73.924 25.7285 74.2216 26.3357C74.5191 26.943 74.9971 27.4489 75.5935 27.7877ZM61.9855 20.2973C62.9181 19.6866 64.0155 19.3593 65.1389 19.3567C65.8882 19.3427 66.6328 19.4758 67.3283 19.7482C68.0238 20.0206 68.656 20.4266 69.1872 20.9421C69.7184 21.4576 70.1378 22.0721 70.4204 22.7489C70.703 23.4257 70.8431 24.1511 70.8322 24.8817C70.8348 25.977 70.5043 27.0485 69.8824 27.9607C69.2604 28.8728 68.375 29.5846 67.3382 30.0062C66.3013 30.4277 65.1595 30.54 64.0572 30.3288C62.9549 30.1177 61.9415 29.5925 61.1453 28.8199C60.3491 28.0472 59.8057 27.0616 59.584 25.9879C59.3622 24.9141 59.472 23.8004 59.8995 22.7874C60.327 21.7745 61.0529 20.9079 61.9855 20.2973ZM63.1668 27.7877C63.7632 28.1266 64.4503 28.2827 65.1389 28.2357C65.5766 28.2258 66.0079 28.1306 66.4073 27.9556C66.8067 27.7806 67.1662 27.5294 67.4644 27.2168C67.7626 26.9042 67.9937 26.5365 68.1438 26.1355C68.294 25.7344 68.3604 25.3082 68.3389 24.8817C68.3372 24.2088 68.1279 23.5518 67.7382 22.9964C67.3485 22.4409 66.7965 22.0126 66.1538 21.767C65.5111 21.5215 64.8076 21.4702 64.1346 21.6197C63.4616 21.7693 62.8503 22.1127 62.3802 22.6055C61.91 23.0982 61.6028 23.7175 61.4984 24.3827C61.3941 25.048 61.4974 25.7285 61.7949 26.3357C62.0924 26.943 62.5705 27.4489 63.1668 27.7877ZM50.3655 23.3997V21.0597H58.4722C58.5568 21.5406 58.597 22.0279 58.5922 22.5157C58.6584 24.5427 57.9124 26.5151 56.5122 28.0147C55.7195 28.8156 54.7621 29.4439 53.7027 29.8583C52.6434 30.2728 51.5061 30.4641 50.3655 30.4197C49.1802 30.4647 47.9978 30.2759 46.889 29.8647C45.7803 29.4534 44.7682 28.8282 43.9132 28.0264C43.0583 27.2247 42.3781 26.2629 41.9135 25.1987C41.4489 24.1345 41.2095 22.9898 41.2095 21.8332C41.2095 20.6767 41.4489 19.532 41.9135 18.4678C42.3781 17.4036 43.0583 16.4418 43.9132 15.64C44.7682 14.8383 45.7803 14.213 46.889 13.8018C47.9978 13.3906 49.1802 13.2018 50.3655 13.2467C51.4831 13.2295 52.593 13.4298 53.6301 13.8361C54.6673 14.2424 55.6109 14.8464 56.4055 15.6127L54.7122 17.2637C53.5374 16.1657 51.9661 15.5631 50.3389 15.5867C48.6415 15.5867 47.0136 16.2442 45.8134 17.4144C44.6132 18.5846 43.9389 20.1718 43.9389 21.8267C43.9389 23.4817 44.6132 25.0689 45.8134 26.2391C47.0136 27.4093 48.6415 28.0667 50.3389 28.0667C51.163 28.1005 51.9852 27.9652 52.7524 27.6696C53.5195 27.374 54.2144 26.9247 54.7922 26.3507C55.5653 25.5419 56.0352 24.5019 56.1255 23.3997H50.3655ZM108.914 20.3822C109.781 21.0114 110.431 21.8823 110.779 22.8797L111.059 23.4517L103.472 26.5067C103.703 27.0238 104.089 27.4607 104.579 27.76C105.069 28.0593 105.641 28.207 106.219 28.1837C106.779 28.189 107.331 28.0515 107.82 27.7847C108.309 27.5179 108.717 27.1311 109.006 26.6627L110.939 27.9627C110.268 28.9532 109.287 29.7055 108.142 30.1074C106.997 30.5092 105.749 30.5391 104.585 30.1924C103.42 29.8458 102.403 29.1413 101.683 28.1841C100.963 27.2269 100.581 26.0684 100.592 24.8817C100.547 24.172 100.651 23.4607 100.898 22.7918C101.146 22.1229 101.532 21.5107 102.031 20.9928C102.531 20.475 103.135 20.0626 103.805 19.7812C104.474 19.4998 105.196 19.3553 105.926 19.3567C107.005 19.3955 108.048 19.7531 108.914 20.3822ZM103.21 23.5344C103.074 23.9169 103.019 24.3219 103.046 24.7257L108.112 22.6717C107.921 22.2956 107.621 21.9827 107.249 21.7722C106.876 21.5618 106.448 21.4632 106.019 21.4887C105.604 21.5069 105.198 21.6055 104.822 21.7789C104.447 21.9522 104.112 22.1968 103.835 22.4982C103.558 22.7997 103.345 23.1519 103.21 23.5344ZM99.3789 30.0817H96.8855V13.8317H99.3789V30.0817ZM92.7122 20.5917H92.8055V19.6817H95.1122V29.5227C95.1122 33.6047 92.6989 35.2817 89.7789 35.2817C88.6994 35.2959 87.6409 34.9903 86.7434 34.4053C85.8459 33.8204 85.1516 32.9837 84.7522 32.0057L86.9122 31.1347C87.1367 31.7021 87.5291 32.1916 88.0395 32.5411C88.5499 32.8906 89.1553 33.0844 89.7789 33.0977C91.6455 33.0977 92.8055 31.9667 92.8055 29.8477V29.0547H92.7122C92.3432 29.4724 91.8842 29.8056 91.3679 30.0303C90.8516 30.255 90.2908 30.3658 89.7255 30.3547C88.2685 30.2858 86.8944 29.673 85.8882 28.6432C84.8819 27.6134 84.3207 26.2456 84.3207 24.8232C84.3207 23.4009 84.8819 22.0331 85.8882 21.0033C86.8944 19.9735 88.2685 19.3606 89.7255 19.2917C90.29 19.286 90.8491 19.3991 91.3646 19.6235C91.8801 19.8479 92.3397 20.1782 92.7122 20.5917ZM87.6459 27.1849C88.2453 27.8068 89.0653 28.1826 89.9389 28.2357C90.3677 28.2197 90.7887 28.119 91.1765 27.9397C91.5642 27.7605 91.9107 27.5064 92.1948 27.1929C92.479 26.8793 92.695 26.5129 92.8298 26.1156C92.9645 25.7184 93.0152 25.2986 92.9789 24.8817C93.0115 24.4663 92.958 24.0486 92.8217 23.6537C92.6853 23.2588 92.4689 22.8946 92.1853 22.5829C91.9016 22.2712 91.5566 22.0183 91.1707 21.8393C90.7848 21.6602 90.3659 21.5587 89.9389 21.5407C89.0653 21.5938 88.2453 21.9696 87.6459 22.5916C87.0466 23.2135 86.7129 24.0348 86.7129 24.8882C86.7129 25.7416 87.0466 26.563 87.6459 27.1849ZM116.486 13.8317H122.459C123.169 13.782 123.883 13.8755 124.555 14.1064C125.227 14.3373 125.843 14.7007 126.364 15.174C126.886 15.6472 127.302 16.2202 127.586 16.8571C127.87 17.4939 128.017 18.1811 128.017 18.8757C128.017 19.5704 127.87 20.2575 127.586 20.8944C127.302 21.5313 126.886 22.1042 126.364 22.5775C125.843 23.0507 125.227 23.4142 124.555 23.6451C123.883 23.876 123.169 23.9695 122.459 23.9197H118.979V30.0817H116.486V13.8317ZM118.979 21.6317H122.459L122.512 21.6577C122.887 21.6577 123.258 21.5858 123.604 21.446C123.95 21.3062 124.265 21.1012 124.53 20.8429C124.795 20.5846 125.005 20.2779 125.148 19.9404C125.292 19.6028 125.366 19.2411 125.366 18.8757C125.366 18.5104 125.292 18.1486 125.148 17.8111C125.005 17.4736 124.795 17.1669 124.53 16.9086C124.265 16.6502 123.95 16.4453 123.604 16.3055C123.258 16.1657 122.887 16.0937 122.512 16.0937H118.979V21.6317ZM135.244 19.8976C136.033 19.4563 136.938 19.2501 137.846 19.3047L137.899 19.3307C140.739 19.3307 142.952 20.9817 142.952 23.8287V30.0817H140.552V28.7817H140.472C140.135 29.2967 139.663 29.715 139.106 29.9937C138.548 30.2724 137.925 30.4015 137.299 30.3677C136.784 30.4066 136.267 30.3442 135.777 30.1842C135.287 30.0242 134.836 29.7699 134.449 29.4364C134.062 29.103 133.748 28.6971 133.525 28.243C133.303 27.7888 133.176 27.2956 133.152 26.7927C133.152 24.4267 135.579 23.1267 137.952 23.1267C138.858 23.1256 139.75 23.3398 140.552 23.7507V23.5947C140.521 23.2856 140.426 22.9856 140.275 22.7123C140.123 22.4391 139.917 22.198 139.669 22.0032C139.421 21.8083 139.135 21.6636 138.829 21.5776C138.523 21.4915 138.202 21.4657 137.886 21.5017C137.429 21.4632 136.971 21.5544 136.566 21.7644C136.161 21.9743 135.828 22.294 135.606 22.6847L133.406 21.7877C133.816 20.996 134.455 20.3389 135.244 19.8976ZM135.592 26.8317C135.592 27.8067 136.726 28.2097 137.539 28.2097L137.592 28.2357C138.321 28.2216 139.02 27.9503 139.559 27.4723C140.098 26.9942 140.442 26.3417 140.526 25.6357C139.834 25.2592 139.051 25.0707 138.259 25.0897C137.006 25.0897 135.592 25.5317 135.592 26.8317ZM148.846 26.7277L151.699 19.6817H154.472L147.646 35.0087H145.046L147.579 29.5357L143.139 19.6817H145.806L148.766 26.7277H148.846ZM131.779 30.0817H129.299V13.8317H131.779V30.0817ZM30.7777 17.0216C30.7793 17.0601 30.7794 17.0987 30.778 17.1372C30.7826 17.1187 30.787 17.1002 30.7912 17.0815C30.7865 17.1286 30.7802 17.1753 30.7725 17.2218C30.7476 17.489 30.6508 17.7547 30.4819 18.009C30.4411 18.077 30.3965 18.143 30.3483 18.2068C30.1216 18.5071 29.8231 18.748 29.4794 18.909C29.4465 18.9284 29.413 18.9476 29.3789 18.9666L22.8589 22.5806L22.8098 22.6024L3.39232 33.3707L3.38497 33.3761C2.98769 33.6739 2.49648 33.8278 1.99546 33.8113C1.7722 33.8039 1.55324 33.7629 1.34582 33.6911C1.12731 33.6186 0.920385 33.5127 0.733195 33.3762L0.725736 33.3835L0.63291 33.28L0.632403 33.2795C0.185594 32.7771 -0.0396335 32.123 0.00573453 31.4595V2.88158C0.00560259 2.88728 0.00548161 2.89299 0.00537162 2.89871V2.70371C0.00537162 2.70144 0.00537344 2.69918 0.00537709 2.69691C-0.0106832 2.39445 0.0276729 2.09444 0.116074 1.80957C0.363777 0.898374 1.008 0.380184 1.85367 0.363688C1.90146 0.359191 1.94951 0.356247 1.99775 0.354883C2.50241 0.340621 2.99607 0.500238 3.39198 0.805678C3.392 0.805689 3.39202 0.805699 3.39204 0.80571L3.5851 0.912722L22.8723 11.5959L22.8675 11.6006L29.2608 15.1444L29.3789 15.2096C29.3795 15.2099 29.3801 15.2102 29.3806 15.2105C29.7663 15.3699 30.1008 15.6275 30.3491 15.9564C30.4126 16.0406 30.4699 16.1286 30.5207 16.2198C30.6618 16.4484 30.7451 16.6859 30.7706 16.9252C30.7796 16.977 30.7867 17.0292 30.792 17.0817C30.7875 17.0616 30.7827 17.0416 30.7777 17.0216Z" fill="white"/>
</svg>
