<svg width="260" height="229" viewBox="0 0 260 229" fill="none" xmlns="http://www.w3.org/2000/svg">
<g clip-path="url(#clip0_0_304)">
<g filter="url(#filter0_f_0_304)">
<circle cx="126" cy="121" r="24" fill="#D7FFAC"/>
</g>
<mask id="path-2-inside-1_0_304" fill="white">
<path fill-rule="evenodd" clip-rule="evenodd" d="M169.669 110.297C170.447 109.777 171.173 109.105 171.818 108.267L183.19 93.4829C185.153 94.1146 186.645 95.9484 186.645 98.2182V132.239C186.645 135.555 183.46 137.94 180.279 137.007L176.81 135.99C172.577 134.749 169.669 130.866 169.669 126.454V110.297ZM164.228 103.995C163.861 103.751 163.617 103.318 163.697 102.781L164.228 99.2396V103.995ZM164.228 111.653V133.61C164.228 143.214 156.442 151 146.838 151H104.605C95.0003 151 87.2144 143.214 87.2144 133.61V98.8292C87.2144 89.2249 95.0002 81.439 104.605 81.439H145.721C146.518 84.5982 149.053 87.2938 152.728 87.9063L158.254 88.8274L156.327 101.675C155.491 107.249 159.658 111.228 164.228 111.653Z"/>
</mask>
<path d="M169.669 110.297L165.226 103.644L161.669 106.02V110.297H169.669ZM171.818 108.267L178.159 113.145V113.145L171.818 108.267ZM183.19 93.4829L185.641 85.8677L180.282 84.1426L176.849 88.6052L183.19 93.4829ZM180.279 137.007L182.53 129.331L182.53 129.331L180.279 137.007ZM176.81 135.99L174.559 143.667L174.559 143.667L176.81 135.99ZM164.228 103.995L159.804 110.66L172.228 118.907V103.995H164.228ZM163.697 102.781L155.786 101.594L155.786 101.594L163.697 102.781ZM164.228 99.2396H172.228L156.317 98.0528L164.228 99.2396ZM164.228 111.653H172.228V104.364L164.971 103.688L164.228 111.653ZM145.721 81.439L153.478 79.4817L151.953 73.439H145.721V81.439ZM152.728 87.9063L151.413 95.7975L151.413 95.7975L152.728 87.9063ZM158.254 88.8274L166.166 90.0141L167.333 82.2302L159.569 80.9362L158.254 88.8274ZM156.327 101.675L164.238 102.862V102.862L156.327 101.675ZM174.113 116.949C175.637 115.931 176.999 114.653 178.159 113.145L165.477 103.389C165.348 103.557 165.257 103.623 165.226 103.644L174.113 116.949ZM178.159 113.145L189.531 98.3606L176.849 88.6052L165.477 103.389L178.159 113.145ZM194.645 98.2182C194.645 92.2671 190.709 87.4988 185.641 85.8677L180.739 101.098C179.596 100.73 178.645 99.6298 178.645 98.2182H194.645ZM194.645 132.239V98.2182H178.645V132.239H194.645ZM178.028 144.684C186.332 147.119 194.645 140.893 194.645 132.239H178.645C178.645 130.217 180.589 128.761 182.53 129.331L178.028 144.684ZM174.559 143.667L178.028 144.684L182.53 129.331L179.061 128.313L174.559 143.667ZM161.669 126.454C161.669 134.417 166.918 141.426 174.559 143.667L179.061 128.313C178.236 128.071 177.669 127.314 177.669 126.454H161.669ZM161.669 110.297V126.454H177.669V110.297H161.669ZM168.653 97.3294C170.637 98.6467 172.03 101.161 171.609 103.968L155.786 101.594C155.204 105.474 157.084 108.855 159.804 110.66L168.653 97.3294ZM171.609 103.968L172.14 100.426L156.317 98.0528L155.786 101.594L171.609 103.968ZM172.228 103.995V99.2396H156.228V103.995H172.228ZM172.228 133.61V111.653H156.228V133.61H172.228ZM146.838 159C160.861 159 172.228 147.632 172.228 133.61H156.228C156.228 138.796 152.024 143 146.838 143V159ZM104.605 159H146.838V143H104.605V159ZM79.2144 133.61C79.2144 147.632 90.582 159 104.605 159V143C99.4185 143 95.2144 138.796 95.2144 133.61H79.2144ZM79.2144 98.8292V133.61H95.2144V98.8292H79.2144ZM104.605 73.439C90.582 73.439 79.2144 84.8066 79.2144 98.8292H95.2144C95.2144 93.6431 99.4185 89.439 104.605 89.439V73.439ZM145.721 73.439H104.605V89.439H145.721V73.439ZM137.964 83.3963C139.473 89.3769 144.346 94.6196 151.413 95.7975L154.043 80.0152C153.922 79.9951 153.85 79.9653 153.808 79.9441C153.764 79.9217 153.724 79.8938 153.686 79.8574C153.604 79.778 153.52 79.647 153.478 79.4817L137.964 83.3963ZM151.413 95.7975L156.939 96.7185L159.569 80.9362L154.043 80.0152L151.413 95.7975ZM150.343 87.6406L148.415 100.489L164.238 102.862L166.166 90.0141L150.343 87.6406ZM148.415 100.489C146.789 111.333 155.107 118.838 163.486 119.619L164.971 103.688C164.855 103.677 164.717 103.64 164.58 103.571C164.444 103.501 164.353 103.422 164.301 103.362C164.256 103.31 164.243 103.277 164.237 103.255C164.234 103.243 164.198 103.131 164.238 102.862L148.415 100.489Z" fill="#96E733" mask="url(#path-2-inside-1_0_304)"/>
<path d="M184.761 81.133L165.293 106.441C164.556 107.399 163.028 106.749 163.207 105.554L166.049 86.6098L154.023 84.6055C153.129 84.4565 152.736 83.3917 153.319 82.6977L173.581 58.5766C174.364 57.6439 175.874 58.3789 175.623 59.5708L171.902 77.2439L184.025 79.2644C184.897 79.4097 185.3 80.4322 184.761 81.133Z" fill="#96E733"/>
</g>
<defs>
<filter id="filter0_f_0_304" x="-1" y="-6" width="254" height="254" filterUnits="userSpaceOnUse" color-interpolation-filters="sRGB">
<feFlood flood-opacity="0" result="BackgroundImageFix"/>
<feBlend mode="normal" in="SourceGraphic" in2="BackgroundImageFix" result="shape"/>
<feGaussianBlur stdDeviation="51.5" result="effect1_foregroundBlur_0_304"/>
</filter>
<clipPath id="clip0_0_304">
<rect width="260" height="229" fill="white"/>
</clipPath>
</defs>
</svg>
