<svg width="271" height="271" viewBox="0 0 271 271" fill="none" xmlns="http://www.w3.org/2000/svg">
<g filter="url(#filter0_f_0_339)">
<circle cx="135.5" cy="135.5" r="35.5" fill="#F0AAAB"/>
</g>
<mask id="path-2-inside-1_0_339" fill="white">
<path fill-rule="evenodd" clip-rule="evenodd" d="M164.736 106.628C164.513 106.236 164.171 105.922 163.758 105.735L169.214 116.49M154.068 101.344C154.055 101.338 154.042 101.332 154.029 101.326C154.042 101.332 154.055 101.338 154.068 101.344L154.068 101.344ZM164.736 106.628C164.767 106.684 164.797 106.741 164.823 106.801ZM144.254 99.3953H106.977C98.7053 99.3953 92 106.101 92 114.372V155.023C92 163.295 98.7053 170 106.977 170H162.605C170.876 170 177.581 163.295 177.581 155.023V124.201C172.459 128.027 164.415 126.634 161.419 120.022L158.025 112.533L150.536 109.139C146.348 107.241 144.254 103.318 144.254 99.3953ZM156.186 135.767C156.186 147.584 146.607 157.163 134.791 157.163C122.975 157.163 113.396 147.584 113.396 135.767C113.396 123.951 122.975 114.372 134.791 114.372C146.607 114.372 156.186 123.951 156.186 135.767ZM134.791 148.605C141.881 148.605 147.628 142.857 147.628 135.767C147.628 128.678 141.881 122.93 134.791 122.93C127.701 122.93 121.954 128.678 121.954 135.767C121.954 142.857 127.701 148.605 134.791 148.605Z"/>
</mask>
<path fill-rule="evenodd" clip-rule="evenodd" d="M164.736 106.628C164.513 106.236 164.171 105.922 163.758 105.735L169.214 116.49M154.068 101.344C154.055 101.338 154.042 101.332 154.029 101.326C154.042 101.332 154.055 101.338 154.068 101.344L154.068 101.344ZM164.736 106.628C164.767 106.684 164.797 106.741 164.823 106.801ZM144.254 99.3953H106.977C98.7053 99.3953 92 106.101 92 114.372V155.023C92 163.295 98.7053 170 106.977 170H162.605C170.876 170 177.581 163.295 177.581 155.023V124.201C172.459 128.027 164.415 126.634 161.419 120.022L158.025 112.533L150.536 109.139C146.348 107.241 144.254 103.318 144.254 99.3953ZM156.186 135.767C156.186 147.584 146.607 157.163 134.791 157.163C122.975 157.163 113.396 147.584 113.396 135.767C113.396 123.951 122.975 114.372 134.791 114.372C146.607 114.372 156.186 123.951 156.186 135.767ZM134.791 148.605C141.881 148.605 147.628 142.857 147.628 135.767C147.628 128.678 141.881 122.93 134.791 122.93C127.701 122.93 121.954 128.678 121.954 135.767C121.954 142.857 127.701 148.605 134.791 148.605Z" fill="#F0AAAB"/>
<path d="M164.736 106.628L168.549 104.687L160.839 108.397L164.736 106.628ZM173.11 114.721L168.632 104.859L160.839 108.397L165.318 118.259L173.11 114.721ZM160.922 108.569L161.01 108.741L168.637 104.86L168.549 104.687L160.922 108.569ZM173.03 114.554L167.574 103.799L159.942 107.671L165.398 118.426L173.03 114.554ZM163.758 105.735L167.29 97.9398L145.106 87.8861L156.126 109.607L163.758 105.735ZM164.736 106.628L157.292 110.851L157.292 110.851L164.736 106.628ZM154.029 101.326L157.704 93.5972L150.353 109.055L154.029 101.326ZM154.068 101.344L150.536 109.139L160.12 95.2927L154.068 101.344ZM154.068 101.344L160.12 95.2926L159.019 94.1917L157.601 93.5491L154.068 101.344ZM144.254 99.3953L152.812 99.3953L152.812 90.8371H144.254V99.3953ZM177.581 124.201H186.14V107.126L172.46 117.344L177.581 124.201ZM161.419 120.022L153.624 123.555L153.624 123.555L161.419 120.022ZM158.025 112.533L165.82 109.001L164.491 106.067L161.558 104.738L158.025 112.533ZM150.536 109.139L147.004 116.935L150.536 109.139ZM160.225 113.53C158.984 112.968 157.959 112.028 157.292 110.851L172.179 102.405C171.067 100.444 169.358 98.877 167.29 97.9398L160.225 113.53ZM176.846 112.618L171.39 101.863L156.126 109.607L161.582 120.362L176.846 112.618ZM150.353 109.055C150.415 109.084 150.476 109.112 150.536 109.139L157.601 93.549C157.635 93.5645 157.67 93.5807 157.705 93.5976L150.353 109.055ZM157.601 93.5491C157.629 93.5618 157.664 93.5779 157.704 93.5972L150.354 109.055C150.42 109.086 150.481 109.115 150.536 109.139L157.601 93.5491ZM160.12 95.2927L160.12 95.2926L148.017 107.396L148.017 107.396L160.12 95.2927ZM157.292 110.851C157.196 110.681 157.108 110.509 157.029 110.335L172.617 103.266C172.485 102.974 172.339 102.686 172.179 102.404L157.292 110.851ZM144.254 90.8371H106.977V107.953H144.254V90.8371ZM106.977 90.8371C93.9788 90.8371 83.4419 101.374 83.4419 114.372H100.558C100.558 110.827 103.432 107.953 106.977 107.953V90.8371ZM83.4419 114.372V155.023H100.558V114.372H83.4419ZM83.4419 155.023C83.4419 168.021 93.9788 178.558 106.977 178.558V161.442C103.432 161.442 100.558 158.568 100.558 155.023H83.4419ZM106.977 178.558H162.605V161.442H106.977V178.558ZM162.605 178.558C175.603 178.558 186.14 168.021 186.14 155.023H169.023C169.023 158.568 166.15 161.442 162.605 161.442V178.558ZM186.14 155.023V124.201H169.023V155.023H186.14ZM153.624 123.555C159.067 135.567 173.58 137.872 182.703 131.057L172.46 117.344C172.016 117.676 171.325 117.847 170.622 117.686C170.036 117.551 169.544 117.218 169.214 116.49L153.624 123.555ZM150.23 116.065L153.624 123.555L169.214 116.49L165.82 109.001L150.23 116.065ZM147.004 116.935L154.493 120.328L161.558 104.738L154.068 101.344L147.004 116.935ZM135.696 99.3952C135.695 106.363 139.478 113.524 147.004 116.935L154.068 101.344C153.554 101.111 153.286 100.824 153.121 100.555C152.934 100.25 152.812 99.8481 152.812 99.3953L135.696 99.3952ZM134.791 165.721C151.334 165.721 164.744 152.31 164.744 135.767H147.628C147.628 142.857 141.881 148.605 134.791 148.605V165.721ZM104.837 135.767C104.837 152.31 118.248 165.721 134.791 165.721V148.605C127.701 148.605 121.954 142.857 121.954 135.767H104.837ZM134.791 105.814C118.248 105.814 104.837 119.225 104.837 135.767H121.954C121.954 128.678 127.701 122.93 134.791 122.93V105.814ZM164.744 135.767C164.744 119.225 151.334 105.814 134.791 105.814V122.93C141.881 122.93 147.628 128.678 147.628 135.767H164.744ZM139.07 135.767C139.07 138.131 137.154 140.046 134.791 140.046V157.163C146.607 157.163 156.186 147.584 156.186 135.767H139.07ZM134.791 131.488C137.154 131.488 139.07 133.404 139.07 135.767H156.186C156.186 123.951 146.607 114.372 134.791 114.372V131.488ZM130.512 135.767C130.512 133.404 132.428 131.488 134.791 131.488V114.372C122.975 114.372 113.396 123.951 113.396 135.767H130.512ZM134.791 140.046C132.428 140.046 130.512 138.131 130.512 135.767H113.396C113.396 147.584 122.975 157.163 134.791 157.163V140.046Z" fill="#F0AAAB" mask="url(#path-2-inside-1_0_339)"/>
<path d="M169.214 82.3007C169.973 80.6254 172.353 80.6254 173.112 82.3007L177.502 91.9902C177.717 92.4629 178.095 92.8417 178.568 93.0559L188.258 97.4466C189.933 98.2057 189.933 100.585 188.258 101.344L178.568 105.735C178.095 105.949 177.717 106.328 177.502 106.801L173.112 116.49C172.353 118.165 169.973 118.165 169.214 116.49L164.823 106.801C164.609 106.328 164.23 105.949 163.758 105.735L154.068 101.344C152.393 100.585 152.393 98.2057 154.068 97.4466L163.758 93.0559C164.23 92.8417 164.609 92.4629 164.823 91.9902L169.214 82.3007Z" fill="#F0AAAB"/>
<defs>
<filter id="filter0_f_0_339" x="0" y="0" width="271" height="271" filterUnits="userSpaceOnUse" color-interpolation-filters="sRGB">
<feFlood flood-opacity="0" result="BackgroundImageFix"/>
<feBlend mode="normal" in="SourceGraphic" in2="BackgroundImageFix" result="shape"/>
<feGaussianBlur stdDeviation="50" result="effect1_foregroundBlur_0_339"/>
</filter>
</defs>
</svg>
